<svg xmlns="http://www.w3.org/2000/svg" aria-hidden="true" style="width:0;height:0;position:absolute;overflow:hidden"><defs><symbol id="arrow-right-icon" viewBox="0 0 32 32"><path d="M8.509 3.253A2.154 2.154 0 0 0 8 4.649v.024-.001c0 .531.184 1.04.509 1.416l8.621 9.925-8.621 9.92a2.163 2.163 0 0 0-.488 1.374v.042-.002c.003.525.187 1.027.509 1.4s.76.581 1.216.587a1.62 1.62 0 0 0 1.225-.561l.002-.002 9.851-11.341c.317-.374.509-.863.509-1.396v-.021.001c0-.533-.184-1.043-.509-1.419L10.973 3.254a1.634 1.634 0 0 0-1.231-.587h-.001a1.64 1.64 0 0 0-1.232.587z"/></symbol><symbol id="github-icon" viewBox="0 0 32 32"><path d="M16 0C7.212 0 0 7.212 0 16c0 7.499 5.262 14.312 12.25 16v-5.293c-.692.152-1.33.156-2.034-.052-.946-.279-1.714-.909-2.284-1.869-.364-.613-1.008-1.278-1.68-1.23l-.165-1.868c1.453-.124 2.711.886 3.457 2.14.332.558.713.884 1.203 1.029.473.14.982.072 1.574-.137.149-1.186.692-1.63 1.102-2.255v-.001c-4.167-.622-5.828-2.832-6.488-4.578-.874-2.317-.405-5.212 1.14-7.041.03-.036.084-.129.063-.194-.708-2.139.155-3.909.187-4.097.817.242.95-.243 3.551 1.337l.449.27c.188.112.129.048.317.034A13.544 13.544 0 0 1 16 7.723c1.136.015 2.273.178 3.404.484l.145.015c-.013-.002.04-.009.127-.062 3.248-1.968 3.132-1.324 4.003-1.608.032.188.883 1.987.182 4.099-.095.291 2.816 2.956 1.203 7.235-.659 1.746-2.32 3.957-6.487 4.578v.001c.534.814 1.176 1.247 1.173 2.927V32C26.738 30.312 32 23.499 32 16c0-8.788-7.212-16-16-16z"/></symbol><symbol id="telegram-icon" viewBox="0 0 44 32"><path d="m17.343 21.048-.675 8.86c.966 0 1.384-.387 1.885-.852l4.527-4.038 9.381 6.412c1.72.895 2.933.424 3.397-1.477l6.157-26.929.002-.002c.546-2.374-.92-3.302-2.596-2.72L3.227 13.235c-2.47.895-2.433 2.18-.42 2.762l9.253 2.686L33.554 6.131c1.012-.625 1.931-.279 1.175.346l-17.386 14.57z"/></symbol><symbol id="facebook-icon" viewBox="0 0 16 32"><path d="M14.143 15.972h-4.034v14.865H3.997V15.972H1.09v-5.224h2.907V7.367c0-2.418 1.142-6.203 6.166-6.203l4.527.019v5.071h-3.285c-.539 0-1.296.271-1.296 1.424v3.075h4.567l-.534 5.219z"/></symbol><symbol id="icon-cow" viewBox="0 0 33 32"><path fill="#f8d24e" style="fill:var(--color1,#f8d24e)" d="M16.56 0c8.837 0 16 7.163 16 16s-7.163 16-16 16-16-7.163-16-16 7.163-16 16-16z"/><path fill="#131313" style="fill:var(--color2,#131313)" d="M9.481 4.618c-.188.162-.725 1.283-.917 1.894-.229.758-.308 1.326-.276 2.111.042 1.12.323 1.97.944 2.857.162.233.292.433.292.449 0 .011-.099.022-.224.022-.537 0-1.543.179-2.314.411-1.225.368-1.944 1.012-1.944 1.732 0 .254.229.687.474.909.474.428 1.512.833 2.627 1.028.386.07 1.532.189 1.788.195.047 0 .063.249.063 1.066 0 .704.026 1.25.078 1.586.188 1.201.772 2.473 1.543 3.372l.266.308-.177.287c-.261.406-.36.714-.391 1.174-.078 1.104.61 2.084 1.939 2.771 2.533 1.315 6.469.801 7.944-1.039.719-.898.803-1.927.235-2.858l-.177-.287.318-.384a6.676 6.676 0 0 0 1.272-2.333c.245-.768.339-1.51.339-2.684 0-.536.016-.98.042-.98a22.66 22.66 0 0 0 1.757-.195c1.121-.195 2.137-.595 2.627-1.028.245-.222.474-.655.474-.909 0-.801-.813-1.45-2.325-1.84-.495-.13-1.428-.287-1.882-.314l-.214-.016.235-.325c.292-.395.657-1.164.798-1.667.396-1.456.151-3.15-.698-4.768-.355-.671-.599-.828-.886-.563-.11.103-.156.244-.261.752-.323 1.618-.923 2.901-1.798 3.848l-.386.422H12.42l-.344-.373c-.855-.942-1.475-2.273-1.798-3.897-.104-.509-.151-.649-.261-.752-.172-.157-.339-.152-.532.016zm.667 3.21a8.56 8.56 0 0 0 1.027 1.699l.323.417-.339.254a3.41 3.41 0 0 0-.844.985l-.099.179-.25-.341c-.855-1.18-1.069-2.625-.615-4.124.219-.725.214-.72.412-.092.094.303.271.763.386 1.023zm13.569-1.142c.214.644.297 1.158.297 1.824 0 .985-.261 1.818-.808 2.565l-.245.336-.182-.308a3.246 3.246 0 0 0-.912-1.001 1.26 1.26 0 0 1-.25-.195c0-.016.099-.141.224-.276.579-.644 1.199-1.802 1.506-2.798.094-.308.188-.563.203-.563s.094.189.167.417zm-2.664 3.956c.579.244 1.131.942 1.22 1.532.047.325.156.53.297.563.063.011.495.049.959.081 1.647.108 2.945.46 3.498.942.255.227.229.417-.078.649-.615.465-1.944.817-3.3.877-.897.038-1.084.065-1.204.189-.089.092-.099.189-.099 1.169 0 1.326-.068 2.089-.235 2.706-.235.839-.698 1.732-1.241 2.365l-.224.26-.464-.276a5.734 5.734 0 0 0-1.72-.698c-1.976-.471-4.16-.184-5.63.741l-.339.216-.214-.254a7.873 7.873 0 0 1-.933-1.483c-.401-.931-.521-1.689-.521-3.355 0-1.618.083-1.499-1.116-1.564-1.532-.081-2.7-.357-3.435-.823-.542-.346-.454-.655.302-1.017.725-.352 1.72-.563 3.102-.649 1.074-.07 1.1-.087 1.199-.606.146-.785.725-1.434 1.454-1.64.182-.054 1.204-.065 4.332-.06l4.092.011.297.124zm-2.929 11.203c1.277.314 2.231.898 2.643 1.624.099.168.141.341.162.606.021.33.005.411-.12.682-.579 1.229-2.705 2.04-4.869 1.856-2.601-.216-4.311-1.667-3.638-3.09.365-.768 1.6-1.505 2.903-1.721.214-.032.427-.07.469-.081s.511-.011 1.042 0c.725.016 1.074.049 1.407.124z"/><path fill="#131313" style="fill:var(--color2,#131313)" d="M12.953 13.351c-.323.108-.542.249-.834.541-.255.243-.276.53-.063.703.198.162.386.141.625-.07.302-.265.537-.373.829-.373.292-.005.516.097.829.373.24.211.427.233.626.07.104-.087.136-.157.136-.319 0-.168-.036-.243-.219-.427-.516-.519-1.282-.72-1.929-.498zM19.031 13.346c-.334.124-.761.406-.933.617-.167.206-.172.438 0 .611.172.184.381.173.631-.032.615-.509 1.074-.525 1.642-.054.146.124.313.222.365.222.255 0 .464-.227.464-.498 0-.173-.433-.573-.824-.763-.433-.211-.949-.249-1.345-.103zM13.709 23.361c-.151.146-.203.357-.125.525.057.135.146.189.506.287.162.043.229.097.287.233.073.179.078.179.48.195l.401.016v-.151c-.005-.216-.125-.53-.281-.747-.182-.249-.5-.411-.86-.444-.245-.022-.308-.011-.407.087zM18.687 23.323c-.261.07-.636.422-.74.698a1.852 1.852 0 0 0-.099.492c-.01.233.01.287.136.4.308.271.714.06.714-.373 0-.211.156-.357.433-.411.292-.054.396-.173.401-.449 0-.363-.323-.503-.844-.357z"/></symbol><symbol id="icon-ice-crema" viewBox="0 0 32 32"><path fill="#f8d24e" style="fill:var(--color1,#f8d24e)" d="M16 0c8.837 0 16 7.163 16 16s-7.163 16-16 16S0 24.837 0 16 7.163 0 16 0z"/><path style="fill:var(--color2,#000)" d="M16.078 4.557c.058.154.174.901.174 1.133 0 .574-.212 1.109-.602 1.528-.323.347-.646.54-1.422.853-.863.352-1.219.564-1.624.964-.41.41-.651.858-.737 1.383-.096.574 0 .978.294 1.21l.149.116-.236.149c-.477.313-1.345 1.051-1.494 1.277-.289.434-.26.839.067 1.003l.154.077-.174.164c-.26.246-.313.415-.275.858.024.294.014.453-.053.694-.082.313-.082.318.024.54.106.217.405.492.675.607.13.058.135.077.164.521.014.256.039 1.07.058 1.812.014.742.048 1.422.077 1.504a.57.57 0 0 0 .198.26c.28.193.472.4.598.641.14.275.294.95.762 3.282l.328 1.639.203.193c.386.381 1.123.554 2.338.554 1.219 0 1.947-.169 2.333-.549l.207-.198.299-1.518c.66-3.321.718-3.504 1.234-3.914.159-.13.313-.289.342-.362.034-.082.068-.713.092-1.668.019-.848.048-1.687.068-1.865l.029-.323.313-.236c.395-.304.549-.578.549-1.003-.005-.501-.333-1.051-.93-1.542l-.284-.231.14-.198c.583-.805.217-1.918-.868-2.661l-.328-.227.12-.125c.535-.574.622-2.285.174-3.475-.27-.709-.887-1.48-1.644-2.049-.371-.28-1.393-.897-1.485-.897-.019 0-.019.034-.005.077zm1.388 1.682c.256.251.564.593.684.766.718 1.003.901 2.261.468 3.186-.174.376-.694.935-1.176 1.268-.737.511-2.396 1.369-3.552 1.841-1.861.757-2.94.901-3.066.405-.048-.188.092-.337.684-.733.535-.366 2.935-2.15 2.979-2.222.014-.019-.231.092-.54.246-1.046.53-1.542.429-1.518-.308.014-.535.4-1.142.935-1.489.135-.087.554-.28.94-.434 1.268-.511 1.653-.771 2.082-1.412.256-.381.535-1.085.554-1.383.005-.106.024-.188.039-.188s.231.207.487.458zm1.316 5.476c.352.198.718.535.877.8.28.477.135.954-.468 1.562-.656.665-1.774 1.301-3.003 1.706-1.133.371-2.217.545-3.769.598l-.964.034.627.039c.81.053 2.376.005 2.984-.092 1.615-.256 2.988-.766 3.972-1.47.222-.159.453-.289.516-.289.159 0 .853.665.993.945a.735.735 0 0 1 .082.429c-.072.641-.853.983-2.738 1.21-2.304.275-5.317.005-6.604-.588-.607-.28-.709-.439-.554-.863.048-.135.058-.294.039-.521-.024-.299-.019-.337.087-.448.241-.26.646-.41 2.13-.786a20.534 20.534 0 0 0 1.567-.472c.819-.299 2.357-1.075 3.07-1.552.67-.443.766-.463 1.157-.241zm-6.401 5.9c1.012.294 1.909.381 3.576.347 1.253-.024 2.024-.101 3.138-.299.227-.039.424-.072.448-.072.053 0 .039 1.851-.019 2.338-.063.516-.202.916-.352 1.012-.154.101-.925.207-1.957.265-2.116.116-4.29 0-4.965-.27-.366-.149-.405-.342-.41-2.13 0-1.191.01-1.355.072-1.33.039.014.251.077.468.14zm1.142 4.097c.347.043.723.087.839.101l.207.024-.183.202c-.236.256-.598.766-.728 1.027-.149.299-.198.318-.419.198l-.188-.106-.106-.656c-.058-.357-.12-.699-.135-.757-.043-.125-.087-.125.713-.034zm5.139-.053c0 .01-.024.135-.048.275-.029.145-.149.93-.27 1.75-.246 1.711-.41 2.516-.559 2.786-.207.361-.704.574-1.509.641-.313.024-1.258-.039-1.311-.087-.039-.043.791-1.07.921-1.138.12-.068.154-.058.564.154.477.251.718.289.718.13s-.125-.313-.434-.525c-.284-.202-.386-.318-.386-.453 0-.039.14-.255.308-.482s.415-.588.54-.805l.236-.39.217.029c.439.063.554.058.54-.039a1.175 1.175 0 0 0-.183-.304c-.092-.12-.164-.241-.164-.265 0-.092.448-.935.593-1.113.125-.154.227-.231.227-.164zm-3.013.385c.241.159 1.147.945 1.205 1.041.024.043-.906 1.499-1.089 1.706-.019.024-.12-.024-.222-.101a15.48 15.48 0 0 0-.839-.578l-.651-.429.39-.66c.694-1.162.68-1.142.829-1.142.077 0 .246.072.376.164zm1.827.174c-.169.207-.308.337-.366.337-.125 0-.328-.111-.67-.362l-.284-.207.569-.034c.308-.014.607-.034.66-.043.386-.063.386-.058.092.308zm-3.644 2.318c.443.174 1.195.583 1.412.766.154.125.154.135.092.289a4.977 4.977 0 0 1-.299.516c-.125.193-.27.434-.323.535-.154.299-.202.323-.521.236-.342-.101-.525-.275-.622-.588-.13-.439-.337-1.677-.313-1.87.01-.072.212-.029.574.116z"/></symbol><symbol id="icon-weight" viewBox="0 0 33 32"><path fill="#f8d24e" style="fill:var(--color1,#f8d24e)" d="M16.56 0c8.837 0 16 7.163 16 16s-7.163 16-16 16-16-7.163-16-16 7.163-16 16-16z"/><path style="fill:var(--color2,#000)" d="M15.248 4.874c-2.861.424-5.218 2.013-6.085 4.093-.277.657-.351 1.061-.351 1.853.005.585.027.802.117 1.118.186.621.319.937.596 1.382l.255.414-.287.352c-2.271 2.826-2.521 6.8-.628 9.931.707 1.175 1.862 2.329 2.989 3.001l.335.197 9.175-.078.218-.119c.761-.43 1.835-1.387 2.436-2.163a9.082 9.082 0 0 0 1.745-4.047c.085-.533.085-2.111-.005-2.613-.271-1.547-.851-2.872-1.766-4.047a4.477 4.477 0 0 1-.314-.424c0-.01.096-.171.207-.352a5.56 5.56 0 0 0 .622-1.413c.144-.518.144-1.811 0-2.329-.511-1.837-2.042-3.369-4.207-4.212-.606-.238-1.644-.492-2.314-.574-.622-.072-2.159-.057-2.739.031zm3.239.843c2.84.554 4.92 2.293 5.303 4.435.085.481.032 1.299-.112 1.754-.144.445-.41.968-.723 1.413-.128.181-.234.388-.234.455s.112.243.271.419c1.33 1.475 2.032 3.322 2.032 5.32-.005 2.272-.878 4.264-2.558 5.827a8.892 8.892 0 0 1-.915.75l-.399.269-8.792.036-.34-.217c-1.234-.802-2.346-2.127-2.963-3.534a7.942 7.942 0 0 1-.223-5.698c.335-.963.782-1.749 1.463-2.577.277-.331.404-.528.404-.621 0-.078-.138-.331-.319-.595-.638-.926-.899-1.956-.745-2.929.16-.983.606-1.791 1.431-2.593 1.074-1.04 2.574-1.728 4.335-1.987.729-.109 2.34-.067 3.085.072z"/><path style="fill:var(--color2,#000)" d="M15.487 6.628c-2.181.357-3.888 1.568-4.446 3.157-.128.357-.149.497-.149 1.009s.021.652.149 1.009c.08.228.229.543.33.704.277.445.399.461.947.129a8.61 8.61 0 0 1 2.739-1.071c.66-.135 1.925-.186 2.643-.104a8.765 8.765 0 0 1 3.314 1.107c.277.16.558.295.628.295.404 0 .92-1.164.92-2.07 0-2.013-1.925-3.736-4.654-4.166-.58-.093-1.861-.093-2.42 0zm2.632.828c.915.197 1.755.569 2.388 1.061.851.657 1.308 1.573 1.234 2.458-.027.352-.16.828-.239.88-.021.01-.319-.114-.66-.279a10.537 10.537 0 0 0-2.324-.792c-.495-.104-.702-.119-1.808-.114-1.09 0-1.319.016-1.792.114a9.56 9.56 0 0 0-2.244.766c-.793.378-.75.383-.894-.083-.186-.605-.069-1.408.293-2.013.191-.321.718-.854 1.101-1.118.729-.502 1.367-.73 2.739-.978.282-.052 1.846.021 2.207.098zM17.253 14.132c-.149.186-.149.362.005.512.101.098.202.124.569.15a4.683 4.683 0 0 1 2.005.611c.436.259 1.101.885 1.399 1.335.441.647.745 1.573.745 2.256 0 .238.021.31.133.414.17.171.394.171.558 0 .117-.119.122-.15.09-.657-.149-2.505-2.292-4.595-4.856-4.735l-.532-.031-.117.145z"/></symbol><symbol id="icon-next" viewBox="0 0 32 32"><path d="M8.509 3.253A2.154 2.154 0 0 0 8 4.649v.024-.001c0 .531.184 1.04.509 1.416l8.621 9.925-8.621 9.92a2.163 2.163 0 0 0-.488 1.374v.042-.002c.003.525.187 1.027.509 1.4s.76.581 1.216.587a1.62 1.62 0 0 0 1.225-.561l.002-.002 9.851-11.341c.317-.374.509-.863.509-1.396v-.021.001c0-.533-.184-1.043-.509-1.419L10.973 3.254a1.634 1.634 0 0 0-1.231-.587h-.001a1.64 1.64 0 0 0-1.232.587z"/></symbol><symbol id="icon-close" viewBox="0 0 20 20"><path d="m10.783 10 4.606-4.606a.557.557 0 0 0-.4-.916.559.559 0 0 0-.383.133L10 9.217 5.394 4.606a.557.557 0 0 0-.788.788L9.217 10l-4.611 4.606a.569.569 0 0 0-.194.401.551.551 0 0 0 .352.538.563.563 0 0 0 .625-.156L10 10.783l4.606 4.606a.557.557 0 0 0 .916-.4.559.559 0 0 0-.133-.383L10.783 10z"/></symbol><symbol id="icon-arrow" viewBox="0 0 12 12"><path d="M3.97 1.227a.75.75 0 0 0 0 1.06L7.682 6 3.97 9.713a.75.75 0 0 0 1.06 1.06L9.273 6.53a.75.75 0 0 0 0-1.06L5.03 1.227a.75.75 0 0 0-1.06 0Z"/></symbol><symbol id="icon-long-arrow" viewBox="0 0 41 16"><path d="M40.707 8.707a1 1 0 0 0 0-1.414L34.343.929a1 1 0 1 0-1.414 1.414L38.586 8l-5.657 5.657a1 1 0 0 0 1.414 1.414l6.364-6.364ZM0 9h40V7H0v2Z"/></symbol><symbol id="play-btn" viewBox="0 0 32 32"><path d="M28.587 14.293 7.947 3.973a1.84 1.84 0 0 0-2.614 1.644V26.264a1.831 1.831 0 0 0 2.677 1.624l-.01.005 20.587-10.32a1.841 1.841 0 0 0 .011-3.284l-.01-.005v.009z"/></symbol></defs></svg>