<svg xmlns="http://www.w3.org/2000/svg" aria-hidden="true" style="position:absolute;width:0;height:0;overflow:hidden">
  <defs>
    <symbol id="arrow-right-icon" viewBox="0 0 32 32">
      <path d="M8.509 3.253c-0.317 0.374-0.509 0.863-0.509 1.396 0 0.008 0 0.016 0 0.024v-0.001c0 0.531 0.184 1.040 0.509 1.416l8.621 9.925-8.621 9.92c-0.304 0.371-0.488 0.851-0.488 1.374 0 0.014 0 0.028 0 0.042l-0-0.002c0.003 0.525 0.187 1.027 0.509 1.4s0.76 0.581 1.216 0.587c0.489-0.001 0.928-0.218 1.225-0.561l0.002-0.002 9.851-11.341c0.317-0.374 0.509-0.863 0.509-1.396 0-0.007-0-0.014-0-0.021v0.001c0-0.533-0.184-1.043-0.509-1.419l-9.851-11.341c-0.297-0.354-0.738-0.58-1.231-0.587h-0.001c-0.461 0-0.907 0.213-1.232 0.587z"></path>
    </symbol>
    <symbol id="github-icon" viewBox="0 0 32 32">
      <path d="M16 0C7.212 0 0 7.212 0 16c0 7.499 5.262 14.312 12.25 16v-5.293c-.692.152-1.33.156-2.034-.052-.946-.279-1.714-.909-2.284-1.869-.364-.613-1.008-1.278-1.68-1.23l-.165-1.868c1.453-.124 2.711.886 3.457 2.14.332.558.713.884 1.203 1.029.473.14.982.072 1.574-.137.149-1.186.692-1.63 1.102-2.255v-.001c-4.167-.622-5.828-2.832-6.488-4.578-.874-2.317-.405-5.212 1.14-7.041.03-.036.084-.129.063-.194-.708-2.139.155-3.909.187-4.097.817.242.95-.243 3.551 1.337l.449.27c.188.112.129.048.317.034A13.544 13.544 0 0 1 16 7.723c1.136.015 2.273.178 3.404.484l.145.015c-.013-.002.04-.009.127-.062 3.248-1.968 3.132-1.324 4.003-1.608.032.188.883 1.987.182 4.099-.095.291 2.816 2.956 1.203 7.235-.659 1.746-2.32 3.957-6.487 4.578v.001c.534.814 1.176 1.247 1.173 2.927V32C26.738 30.312 32 23.499 32 16c0-8.788-7.212-16-16-16z"/>
    </symbol>
    <symbol id="telegram-icon" viewBox="0 0 44 32">
      <path d="m17.343 21.048-.675 8.86c.966 0 1.384-.387 1.885-.852l4.527-4.038 9.381 6.412c1.72.895 2.933.424 3.397-1.477l6.157-26.929.002-.002c.546-2.374-.92-3.302-2.596-2.72L3.227 13.235c-2.47.895-2.433 2.18-.42 2.762l9.253 2.686L33.554 6.131c1.012-.625 1.931-.279 1.175.346l-17.386 14.57z"/>
    </symbol>
    <symbol id="facebook-icon" viewBox="0 0 16 32">
      <path d="M14.143 15.972h-4.034v14.865H3.997V15.972H1.09v-5.224h2.907V7.367c0-2.418 1.142-6.203 6.166-6.203l4.527.019v5.071h-3.285c-.539 0-1.296.271-1.296 1.424v3.075h4.567l-.534 5.219z"/>
    </symbol>
    <symbol id="icon-cow" viewBox="0 0 33 32">
      <path fill="#f8d24e" style="fill: var(--color1, #f8d24e)" d="M16.56 0c8.837 0 16 7.163 16 16s-7.163 16-16 16c-8.837 0-16-7.163-16-16s7.163-16 16-16z"></path>
      <path fill="#131313" style="fill: var(--color2, #131313)" d="M9.481 4.618c-0.188 0.162-0.725 1.283-0.917 1.894-0.229 0.758-0.308 1.326-0.276 2.111 0.042 1.12 0.323 1.97 0.944 2.857 0.162 0.233 0.292 0.433 0.292 0.449 0 0.011-0.099 0.022-0.224 0.022-0.537 0-1.543 0.179-2.314 0.411-1.225 0.368-1.944 1.012-1.944 1.732 0 0.254 0.229 0.687 0.474 0.909 0.474 0.428 1.512 0.833 2.627 1.028 0.386 0.070 1.532 0.189 1.788 0.195 0.047 0 0.063 0.249 0.063 1.066 0 0.704 0.026 1.25 0.078 1.586 0.188 1.201 0.772 2.473 1.543 3.372l0.266 0.308-0.177 0.287c-0.261 0.406-0.36 0.714-0.391 1.174-0.078 1.104 0.61 2.084 1.939 2.771 2.533 1.315 6.469 0.801 7.944-1.039 0.719-0.898 0.803-1.927 0.235-2.858l-0.177-0.287 0.318-0.384c0.594-0.714 0.98-1.429 1.272-2.333 0.245-0.768 0.339-1.51 0.339-2.684 0-0.536 0.016-0.98 0.042-0.98 0.24-0.005 1.392-0.13 1.757-0.195 1.121-0.195 2.137-0.595 2.627-1.028 0.245-0.222 0.474-0.655 0.474-0.909 0-0.801-0.813-1.45-2.325-1.84-0.495-0.13-1.428-0.287-1.882-0.314l-0.214-0.016 0.235-0.325c0.292-0.395 0.657-1.164 0.798-1.667 0.396-1.456 0.151-3.15-0.698-4.768-0.355-0.671-0.599-0.828-0.886-0.563-0.11 0.103-0.156 0.244-0.261 0.752-0.323 1.618-0.923 2.901-1.798 3.848l-0.386 0.422h-8.246l-0.344-0.373c-0.855-0.942-1.475-2.273-1.798-3.897-0.104-0.509-0.151-0.649-0.261-0.752-0.172-0.157-0.339-0.152-0.532 0.016zM10.148 7.828c0.276 0.606 0.62 1.174 1.027 1.699l0.323 0.417-0.339 0.254c-0.318 0.244-0.615 0.59-0.844 0.985l-0.099 0.179-0.25-0.341c-0.855-1.18-1.069-2.625-0.615-4.124 0.219-0.725 0.214-0.72 0.412-0.092 0.094 0.303 0.271 0.763 0.386 1.023zM23.717 6.686c0.214 0.644 0.297 1.158 0.297 1.824 0 0.985-0.261 1.818-0.808 2.565l-0.245 0.336-0.182-0.308c-0.214-0.379-0.579-0.774-0.912-1.001-0.141-0.092-0.25-0.184-0.25-0.195 0-0.016 0.099-0.141 0.224-0.276 0.579-0.644 1.199-1.802 1.506-2.798 0.094-0.308 0.188-0.563 0.203-0.563s0.094 0.189 0.167 0.417zM21.053 10.642c0.579 0.244 1.131 0.942 1.22 1.532 0.047 0.325 0.156 0.53 0.297 0.563 0.063 0.011 0.495 0.049 0.959 0.081 1.647 0.108 2.945 0.46 3.498 0.942 0.255 0.227 0.229 0.417-0.078 0.649-0.615 0.465-1.944 0.817-3.3 0.877-0.897 0.038-1.084 0.065-1.204 0.189-0.089 0.092-0.099 0.189-0.099 1.169 0 1.326-0.068 2.089-0.235 2.706-0.235 0.839-0.698 1.732-1.241 2.365l-0.224 0.26-0.464-0.276c-0.563-0.336-1.089-0.552-1.72-0.698-1.976-0.471-4.16-0.184-5.63 0.741l-0.339 0.216-0.214-0.254c-0.292-0.341-0.751-1.072-0.933-1.483-0.401-0.931-0.521-1.689-0.521-3.355 0-1.618 0.083-1.499-1.116-1.564-1.532-0.081-2.7-0.357-3.435-0.823-0.542-0.346-0.454-0.655 0.302-1.017 0.725-0.352 1.72-0.563 3.102-0.649 1.074-0.070 1.1-0.087 1.199-0.606 0.146-0.785 0.725-1.434 1.454-1.64 0.182-0.054 1.204-0.065 4.332-0.060l4.092 0.011 0.297 0.124zM18.124 21.845c1.277 0.314 2.231 0.898 2.643 1.624 0.099 0.168 0.141 0.341 0.162 0.606 0.021 0.33 0.005 0.411-0.12 0.682-0.579 1.229-2.705 2.040-4.869 1.856-2.601-0.216-4.311-1.667-3.638-3.090 0.365-0.768 1.6-1.505 2.903-1.721 0.214-0.032 0.427-0.070 0.469-0.081s0.511-0.011 1.042 0c0.725 0.016 1.074 0.049 1.407 0.124z"></path>
      <path fill="#131313" style="fill: var(--color2, #131313)" d="M12.953 13.351c-0.323 0.108-0.542 0.249-0.834 0.541-0.255 0.243-0.276 0.53-0.063 0.703 0.198 0.162 0.386 0.141 0.625-0.070 0.302-0.265 0.537-0.373 0.829-0.373 0.292-0.005 0.516 0.097 0.829 0.373 0.24 0.211 0.427 0.233 0.626 0.070 0.104-0.087 0.136-0.157 0.136-0.319 0-0.168-0.036-0.243-0.219-0.427-0.516-0.519-1.282-0.72-1.929-0.498z"></path>
      <path fill="#131313" style="fill: var(--color2, #131313)" d="M19.031 13.346c-0.334 0.124-0.761 0.406-0.933 0.617-0.167 0.206-0.172 0.438 0 0.611 0.172 0.184 0.381 0.173 0.631-0.032 0.615-0.509 1.074-0.525 1.642-0.054 0.146 0.124 0.313 0.222 0.365 0.222 0.255 0 0.464-0.227 0.464-0.498 0-0.173-0.433-0.573-0.824-0.763-0.433-0.211-0.949-0.249-1.345-0.103z"></path>
      <path fill="#131313" style="fill: var(--color2, #131313)" d="M13.709 23.361c-0.151 0.146-0.203 0.357-0.125 0.525 0.057 0.135 0.146 0.189 0.506 0.287 0.162 0.043 0.229 0.097 0.287 0.233 0.073 0.179 0.078 0.179 0.48 0.195l0.401 0.016v-0.151c-0.005-0.216-0.125-0.53-0.281-0.747-0.182-0.249-0.5-0.411-0.86-0.444-0.245-0.022-0.308-0.011-0.407 0.087z"></path>
      <path fill="#131313" style="fill: var(--color2, #131313)" d="M18.687 23.323c-0.261 0.070-0.636 0.422-0.74 0.698-0.047 0.124-0.094 0.346-0.099 0.492-0.010 0.233 0.010 0.287 0.136 0.4 0.308 0.271 0.714 0.060 0.714-0.373 0-0.211 0.156-0.357 0.433-0.411 0.292-0.054 0.396-0.173 0.401-0.449 0-0.363-0.323-0.503-0.844-0.357z"></path>
    </symbol>

    <symbol id="icon-ice-crema" viewBox="0 0 32 32">
      <path fill="#f8d24e" style="fill: var(--color1, #f8d24e)" d="M16 0c8.837 0 16 7.163 16 16s-7.163 16-16 16c-8.837 0-16-7.163-16-16s7.163-16 16-16z"></path>
      <path fill="#000" style="fill: var(--color2, #000)" d="M16.078 4.557c0.058 0.154 0.174 0.901 0.174 1.133 0 0.574-0.212 1.109-0.602 1.528-0.323 0.347-0.646 0.54-1.422 0.853-0.863 0.352-1.219 0.564-1.624 0.964-0.41 0.41-0.651 0.858-0.737 1.383-0.096 0.574 0 0.978 0.294 1.21l0.149 0.116-0.236 0.149c-0.477 0.313-1.345 1.051-1.494 1.277-0.289 0.434-0.26 0.839 0.067 1.003l0.154 0.077-0.174 0.164c-0.26 0.246-0.313 0.415-0.275 0.858 0.024 0.294 0.014 0.453-0.053 0.694-0.082 0.313-0.082 0.318 0.024 0.54 0.106 0.217 0.405 0.492 0.675 0.607 0.13 0.058 0.135 0.077 0.164 0.521 0.014 0.256 0.039 1.070 0.058 1.812 0.014 0.742 0.048 1.422 0.077 1.504 0.024 0.087 0.116 0.202 0.198 0.26 0.28 0.193 0.472 0.4 0.598 0.641 0.14 0.275 0.294 0.95 0.762 3.282l0.328 1.639 0.203 0.193c0.386 0.381 1.123 0.554 2.338 0.554 1.219 0 1.947-0.169 2.333-0.549l0.207-0.198 0.299-1.518c0.66-3.321 0.718-3.504 1.234-3.914 0.159-0.13 0.313-0.289 0.342-0.362 0.034-0.082 0.068-0.713 0.092-1.668 0.019-0.848 0.048-1.687 0.068-1.865l0.029-0.323 0.313-0.236c0.395-0.304 0.549-0.578 0.549-1.003-0.005-0.501-0.333-1.051-0.93-1.542l-0.284-0.231 0.14-0.198c0.583-0.805 0.217-1.918-0.868-2.661l-0.328-0.227 0.12-0.125c0.535-0.574 0.622-2.285 0.174-3.475-0.27-0.709-0.887-1.48-1.644-2.049-0.371-0.28-1.393-0.897-1.485-0.897-0.019 0-0.019 0.034-0.005 0.077zM17.466 6.239c0.256 0.251 0.564 0.593 0.684 0.766 0.718 1.003 0.901 2.261 0.468 3.186-0.174 0.376-0.694 0.935-1.176 1.268-0.737 0.511-2.396 1.369-3.552 1.841-1.861 0.757-2.94 0.901-3.066 0.405-0.048-0.188 0.092-0.337 0.684-0.733 0.535-0.366 2.935-2.15 2.979-2.222 0.014-0.019-0.231 0.092-0.54 0.246-1.046 0.53-1.542 0.429-1.518-0.308 0.014-0.535 0.4-1.142 0.935-1.489 0.135-0.087 0.554-0.28 0.94-0.434 1.268-0.511 1.653-0.771 2.082-1.412 0.256-0.381 0.535-1.085 0.554-1.383 0.005-0.106 0.024-0.188 0.039-0.188s0.231 0.207 0.487 0.458zM18.782 11.715c0.352 0.198 0.718 0.535 0.877 0.8 0.28 0.477 0.135 0.954-0.468 1.562-0.656 0.665-1.774 1.301-3.003 1.706-1.133 0.371-2.217 0.545-3.769 0.598l-0.964 0.034 0.627 0.039c0.81 0.053 2.376 0.005 2.984-0.092 1.615-0.256 2.988-0.766 3.972-1.47 0.222-0.159 0.453-0.289 0.516-0.289 0.159 0 0.853 0.665 0.993 0.945 0.077 0.159 0.096 0.275 0.082 0.429-0.072 0.641-0.853 0.983-2.738 1.21-2.304 0.275-5.317 0.005-6.604-0.588-0.607-0.28-0.709-0.439-0.554-0.863 0.048-0.135 0.058-0.294 0.039-0.521-0.024-0.299-0.019-0.337 0.087-0.448 0.241-0.26 0.646-0.41 2.13-0.786 0.521-0.135 1.229-0.347 1.567-0.472 0.819-0.299 2.357-1.075 3.070-1.552 0.67-0.443 0.766-0.463 1.157-0.241zM12.381 17.615c1.012 0.294 1.909 0.381 3.576 0.347 1.253-0.024 2.024-0.101 3.138-0.299 0.227-0.039 0.424-0.072 0.448-0.072 0.053 0 0.039 1.851-0.019 2.338-0.063 0.516-0.202 0.916-0.352 1.012-0.154 0.101-0.925 0.207-1.957 0.265-2.116 0.116-4.29 0-4.965-0.27-0.366-0.149-0.405-0.342-0.41-2.13 0-1.191 0.010-1.355 0.072-1.33 0.039 0.014 0.251 0.077 0.468 0.14zM13.523 21.712c0.347 0.043 0.723 0.087 0.839 0.101l0.207 0.024-0.183 0.202c-0.236 0.256-0.598 0.766-0.728 1.027-0.149 0.299-0.198 0.318-0.419 0.198l-0.188-0.106-0.106-0.656c-0.058-0.357-0.12-0.699-0.135-0.757-0.043-0.125-0.087-0.125 0.713-0.034zM18.662 21.659c0 0.010-0.024 0.135-0.048 0.275-0.029 0.145-0.149 0.93-0.27 1.75-0.246 1.711-0.41 2.516-0.559 2.786-0.207 0.361-0.704 0.574-1.509 0.641-0.313 0.024-1.258-0.039-1.311-0.087-0.039-0.043 0.791-1.070 0.921-1.138 0.12-0.068 0.154-0.058 0.564 0.154 0.477 0.251 0.718 0.289 0.718 0.13s-0.125-0.313-0.434-0.525c-0.284-0.202-0.386-0.318-0.386-0.453 0-0.039 0.14-0.255 0.308-0.482s0.415-0.588 0.54-0.805l0.236-0.39 0.217 0.029c0.439 0.063 0.554 0.058 0.54-0.039-0.010-0.048-0.092-0.188-0.183-0.304-0.092-0.12-0.164-0.241-0.164-0.265 0-0.092 0.448-0.935 0.593-1.113 0.125-0.154 0.227-0.231 0.227-0.164zM15.649 22.044c0.241 0.159 1.147 0.945 1.205 1.041 0.024 0.043-0.906 1.499-1.089 1.706-0.019 0.024-0.12-0.024-0.222-0.101-0.101-0.082-0.477-0.342-0.839-0.578l-0.651-0.429 0.39-0.66c0.694-1.162 0.68-1.142 0.829-1.142 0.077 0 0.246 0.072 0.376 0.164zM17.476 22.218c-0.169 0.207-0.308 0.337-0.366 0.337-0.125 0-0.328-0.111-0.67-0.362l-0.284-0.207 0.569-0.034c0.308-0.014 0.607-0.034 0.66-0.043 0.386-0.063 0.386-0.058 0.092 0.308zM13.832 24.536c0.443 0.174 1.195 0.583 1.412 0.766 0.154 0.125 0.154 0.135 0.092 0.289-0.039 0.087-0.169 0.318-0.299 0.516-0.125 0.193-0.27 0.434-0.323 0.535-0.154 0.299-0.202 0.323-0.521 0.236-0.342-0.101-0.525-0.275-0.622-0.588-0.13-0.439-0.337-1.677-0.313-1.87 0.010-0.072 0.212-0.029 0.574 0.116z"></path>
    </symbol>

    <symbol id="icon-weight" viewBox="0 0 33 32">
      <path fill="#f8d24e" style="fill: var(--color1, #f8d24e)" d="M16.56 0c8.837 0 16 7.163 16 16s-7.163 16-16 16c-8.837 0-16-7.163-16-16s7.163-16 16-16z"></path>
      <path fill="#000" style="fill: var(--color2, #000)" d="M15.248 4.874c-2.861 0.424-5.218 2.013-6.085 4.093-0.277 0.657-0.351 1.061-0.351 1.853 0.005 0.585 0.027 0.802 0.117 1.118 0.186 0.621 0.319 0.937 0.596 1.382l0.255 0.414-0.287 0.352c-2.271 2.826-2.521 6.8-0.628 9.931 0.707 1.175 1.862 2.329 2.989 3.001l0.335 0.197 9.175-0.078 0.218-0.119c0.761-0.43 1.835-1.387 2.436-2.163 0.904-1.18 1.495-2.556 1.745-4.047 0.085-0.533 0.085-2.111-0.005-2.613-0.271-1.547-0.851-2.872-1.766-4.047-0.176-0.223-0.314-0.409-0.314-0.424 0-0.010 0.096-0.171 0.207-0.352 0.261-0.414 0.495-0.947 0.622-1.413 0.144-0.518 0.144-1.811 0-2.329-0.511-1.837-2.042-3.369-4.207-4.212-0.606-0.238-1.644-0.492-2.314-0.574-0.622-0.072-2.159-0.057-2.739 0.031zM18.487 5.717c2.84 0.554 4.92 2.293 5.303 4.435 0.085 0.481 0.032 1.299-0.112 1.754-0.144 0.445-0.41 0.968-0.723 1.413-0.128 0.181-0.234 0.388-0.234 0.455s0.112 0.243 0.271 0.419c1.33 1.475 2.032 3.322 2.032 5.32-0.005 2.272-0.878 4.264-2.558 5.827-0.287 0.269-0.697 0.605-0.915 0.75l-0.399 0.269-8.792 0.036-0.34-0.217c-1.234-0.802-2.346-2.127-2.963-3.534-0.777-1.78-0.856-3.845-0.223-5.698 0.335-0.963 0.782-1.749 1.463-2.577 0.277-0.331 0.404-0.528 0.404-0.621 0-0.078-0.138-0.331-0.319-0.595-0.638-0.926-0.899-1.956-0.745-2.929 0.16-0.983 0.606-1.791 1.431-2.593 1.074-1.040 2.574-1.728 4.335-1.987 0.729-0.109 2.34-0.067 3.085 0.072z"></path>
      <path fill="#000" style="fill: var(--color2, #000)" d="M15.487 6.628c-2.181 0.357-3.888 1.568-4.446 3.157-0.128 0.357-0.149 0.497-0.149 1.009s0.021 0.652 0.149 1.009c0.080 0.228 0.229 0.543 0.33 0.704 0.277 0.445 0.399 0.461 0.947 0.129 0.819-0.502 1.761-0.869 2.739-1.071 0.66-0.135 1.925-0.186 2.643-0.104 1.122 0.129 2.34 0.533 3.314 1.107 0.277 0.16 0.558 0.295 0.628 0.295 0.404 0 0.92-1.164 0.92-2.070 0-2.013-1.925-3.736-4.654-4.166-0.58-0.093-1.861-0.093-2.42 0zM18.119 7.456c0.915 0.197 1.755 0.569 2.388 1.061 0.851 0.657 1.308 1.573 1.234 2.458-0.027 0.352-0.16 0.828-0.239 0.88-0.021 0.010-0.319-0.114-0.66-0.279-0.707-0.342-1.511-0.616-2.324-0.792-0.495-0.104-0.702-0.119-1.808-0.114-1.090 0-1.319 0.016-1.792 0.114-0.819 0.176-1.457 0.393-2.244 0.766-0.793 0.378-0.75 0.383-0.894-0.083-0.186-0.605-0.069-1.408 0.293-2.013 0.191-0.321 0.718-0.854 1.101-1.118 0.729-0.502 1.367-0.73 2.739-0.978 0.282-0.052 1.846 0.021 2.207 0.098z"></path>
      <path fill="#000" style="fill: var(--color2, #000)" d="M17.253 14.132c-0.149 0.186-0.149 0.362 0.005 0.512 0.101 0.098 0.202 0.124 0.569 0.15 0.713 0.052 1.394 0.259 2.005 0.611 0.436 0.259 1.101 0.885 1.399 1.335 0.441 0.647 0.745 1.573 0.745 2.256 0 0.238 0.021 0.31 0.133 0.414 0.17 0.171 0.394 0.171 0.558 0 0.117-0.119 0.122-0.15 0.090-0.657-0.149-2.505-2.292-4.595-4.856-4.735l-0.532-0.031-0.117 0.145z"></path>
    </symbol>

    <symbol id="icon-next" viewBox="0 0 32 32">
      <path d="M8.509 3.253c-0.317 0.374-0.509 0.863-0.509 1.396 0 0.008 0 0.016 0 0.024v-0.001c0 0.531 0.184 1.040 0.509 1.416l8.621 9.925-8.621 9.92c-0.304 0.371-0.488 0.851-0.488 1.374 0 0.014 0 0.028 0 0.042l-0-0.002c0.003 0.525 0.187 1.027 0.509 1.4s0.76 0.581 1.216 0.587c0.489-0.001 0.928-0.218 1.225-0.561l0.002-0.002 9.851-11.341c0.317-0.374 0.509-0.863 0.509-1.396 0-0.007-0-0.014-0-0.021v0.001c0-0.533-0.184-1.043-0.509-1.419l-9.851-11.341c-0.297-0.354-0.738-0.58-1.231-0.587h-0.001c-0.461 0-0.907 0.213-1.232 0.587z"></path>
    </symbol>

    <symbol id="icon-close" viewBox="0 0 20 20">
      <path d="M10.783 10l4.606-4.606c0.091-0.106 0.138-0.243 0.133-0.383s-0.063-0.272-0.162-0.371c-0.099-0.099-0.232-0.157-0.371-0.162s-0.277 0.042-0.383 0.133l-4.606 4.606-4.606-4.611c-0.105-0.105-0.247-0.163-0.394-0.163s-0.29 0.059-0.394 0.163c-0.105 0.105-0.163 0.247-0.163 0.394s0.059 0.29 0.163 0.394l4.611 4.606-4.611 4.606c-0.058 0.050-0.105 0.111-0.139 0.18s-0.052 0.144-0.055 0.221c-0.003 0.077 0.010 0.153 0.038 0.224s0.070 0.136 0.124 0.19c0.054 0.054 0.119 0.097 0.19 0.124s0.148 0.041 0.224 0.038c0.077-0.003 0.152-0.022 0.221-0.055s0.13-0.081 0.18-0.139l4.611-4.606 4.606 4.606c0.106 0.091 0.243 0.138 0.383 0.133s0.272-0.063 0.371-0.162c0.099-0.099 0.157-0.232 0.162-0.371s-0.042-0.277-0.133-0.383l-4.606-4.606z"></path>
    </symbol>

    <symbol id="icon-arrow" viewBox="0 0 12 12">
      <path d="M3.96959 1.22704C3.82899 1.36768 3.75 1.55841 3.75 1.75729C3.75 1.95616 3.82899 2.14689 3.96959 2.28754L7.68209 6.00004L3.96959 9.71254C3.83297 9.85399 3.75738 10.0434 3.75908 10.2401C3.76079 10.4367 3.83967 10.6248 3.97873 10.7639C4.11778 10.903 4.30589 10.9818 4.50254 10.9835C4.69919 10.9853 4.88864 10.9097 5.03009 10.773L9.27284 6.53029C9.41344 6.38964 9.49243 6.19891 9.49243 6.00004C9.49243 5.80116 9.41344 5.61043 9.27284 5.46979L5.03009 1.22704C4.88944 1.08643 4.69871 1.00745 4.49984 1.00745C4.30097 1.00745 4.11024 1.08643 3.96959 1.22704V1.22704Z"/>
    </symbol>
    <symbol id="icon-long-arrow" viewBox="0 0 41 16">
      <path d="M40.7071 8.70711C41.0976 8.31658 41.0976 7.68342 40.7071 7.29289L34.3431 0.928932C33.9526 0.538408 33.3195 0.538408 32.9289 0.928932C32.5384 1.31946 32.5384 1.95262 32.9289 2.34315L38.5858 8L32.9289 13.6569C32.5384 14.0474 32.5384 14.6805 32.9289 15.0711C33.3195 15.4616 33.9526 15.4616 34.3431 15.0711L40.7071 8.70711ZM0 9H40V7H0V9Z"/>
    </symbol>

    <symbol id="play-btn" viewBox="0 0 32 32">
      <path d="M28.587 14.293l-20.64-10.32c-0.227-0.108-0.493-0.17-0.774-0.17-1.007 0-1.826 0.81-1.84 1.814v20.632c-0 0.005-0 0.010-0 0.015 0 1.011 0.82 1.831 1.831 1.831 0.305 0 0.593-0.075 0.846-0.207l-0.010 0.005 20.587-10.32c0.606-0.309 1.015-0.929 1.015-1.644s-0.408-1.335-1.004-1.64l-0.010-0.005v0.009z"></path>
    </symbol>
  </defs>
</svg>
